HIERARCHY
ROOT Hips
{
	OFFSET	0.00	0.00	0.00
	CHANNELS 6 Xposition Yposition Zposition Zrotation Xrotation Yrotation
	JOINT LeftUpLeg
	{
		OFFSET	 0.126116	-0.065224	 0.014019
		CHANNELS 3 Zrotation Xrotation Yrotation
		JOINT LeftLeg
		{
			OFFSET	 0.000000	 0.569914	 0.000000
			CHANNELS 3 Zrotation Xrotation Yrotation
			JOINT LeftFoot
			{
				OFFSET	 0.000000	 0.544423	 0.000000
				CHANNELS 3 Zrotation Xrotation Yrotation
				JOINT LeftToeBase
				{
					OFFSET	 0.000000	 0.207117	 0.000000
					CHANNELS 3 Zrotation Xrotation Yrotation
					End Site
					{
						OFFSET	 0.000000	 0.207117	 0.000000
					}
				}
			}
		}
	}
	JOINT RightUpLeg
	{
		OFFSET	-0.124023	-0.065224	 0.008373
		CHANNELS 3 Zrotation Xrotation Yrotation
		JOINT RightLeg
		{
			OFFSET	 0.000000	 0.570047	 0.000000
			CHANNELS 3 Zrotation Xrotation Yrotation
			JOINT RightFoot
			{
				OFFSET	 0.000000	 0.544354	 0.000000
				CHANNELS 3 Zrotation Xrotation Yrotation
				JOINT RightToeBase
				{
					OFFSET	 0.000000	 0.207540	 0.000000
					CHANNELS 3 Zrotation Xrotation Yrotation
					End Site
					{
						OFFSET	 0.000000	 0.207540	 0.000000
					}
				}
			}
		}
	}
	JOINT Spine
	{
		OFFSET	 0.000184	 0.117403	 0.007763
		CHANNELS 3 Zrotation Xrotation Yrotation
		JOINT Spine1
		{
			OFFSET	 0.000000	 0.137269	 0.000000
			CHANNELS 3 Zrotation Xrotation Yrotation
			JOINT Spine2
			{
				OFFSET	 0.000000	 0.156879	 0.000000
				CHANNELS 3 Zrotation Xrotation Yrotation
				JOINT LeftShoulder
				{
					OFFSET	 0.080501	 0.160143	 0.002496
					CHANNELS 3 Zrotation Xrotation Yrotation
					JOINT LeftArm
					{
						OFFSET	 0.000000	 0.164363	 0.000000
						CHANNELS 3 Zrotation Xrotation Yrotation
						JOINT LeftForeArm
						{
							OFFSET	 0.000000	 0.364576	 0.000000
							CHANNELS 3 Zrotation Xrotation Yrotation
							JOINT LeftHand
							{
								OFFSET	 0.000000	 0.360812	 0.000000
								CHANNELS 3 Zrotation Xrotation Yrotation
								JOINT LeftHandIndex1
								{
									OFFSET	 0.000000	 0.086006	 0.000000
									CHANNELS 3 Zrotation Xrotation Yrotation
									JOINT LeftHandIndex2
									{
										OFFSET	 0.000000	 0.047237	 0.000000
										CHANNELS 3 Zrotation Xrotation Yrotation
										JOINT LeftHandIndex3
										{
											OFFSET	-0.004284	 0.038165	 0.000551
											CHANNELS 3 Zrotation Xrotation Yrotation
											End Site
											{
												OFFSET	-0.004284	 0.038165	 0.000551
											}
										}
									}
								}
							}
						}
					}
				}
				JOINT Neck
				{
					OFFSET	 0.000000	 0.176489	 0.000000
					CHANNELS 3 Zrotation Xrotation Yrotation
					JOINT Head
					{
						OFFSET	 0.000000	 0.077941	 0.001747
						CHANNELS 3 Zrotation Xrotation Yrotation
						End Site
						{
							OFFSET	 0.000000	 0.077941	 0.001747
						}
					}
				}
				JOINT RightShoulder
				{
					OFFSET	-0.080363	 0.159706	-0.000306
					CHANNELS 3 Zrotation Xrotation Yrotation
					JOINT RightArm
					{
						OFFSET	 0.000000	 0.164196	 0.000000
						CHANNELS 3 Zrotation Xrotation Yrotation
						JOINT RightForeArm
						{
							OFFSET	 0.000000	 0.365611	 0.000000
							CHANNELS 3 Zrotation Xrotation Yrotation
							JOINT RightHand
							{
								OFFSET	 0.000000	 0.360648	 0.000000
								CHANNELS 3 Zrotation Xrotation Yrotation
								JOINT RightHandIndex1
								{
									OFFSET	 0.000000	 0.069977	 0.000000
									CHANNELS 3 Zrotation Xrotation Yrotation
									JOINT RightHandIndex2
									{
										OFFSET	 0.000000	 0.052305	 0.000000
										CHANNELS 3 Zrotation Xrotation Yrotation
										JOINT RightHandIndex3
										{
											OFFSET	 0.009002	 0.042196	 0.000782
											CHANNELS 3 Zrotation Xrotation Yrotation
											End Site
											{
												OFFSET	 0.009002	 0.042196	 0.000782
											}
										}
									}
								}
							}
						}
					}
				}
			}
		}
	}
}
MOTION
Frames:    11
Frame Time: 0.03333334
-0.052092	 1.203914	 0.032477	 0.304987	-10.386950	-166.038100	 153.955300	 30.706670	 56.101840	 9.266034	-60.204550	 10.021750	 45.495850	 57.931550	-77.655790	 3.894950	 39.214280	-5.102525	-171.831000	 27.321530	-5.949293	-6.494853	-52.695510	-6.444270	-71.334850	 57.810470	 84.922060	-1.407814	 34.841220	 2.986324	-0.672986	 6.960896	-2.574912	-5.372254	 2.765444	 0.973039	-0.856190	 5.727929	 12.298560	-107.837100	-1.615748	 88.373370	-4.794176	 55.116500	 16.738340	 42.408380	-2.032356	 1.557866	-23.646530	-46.447380	-16.755070	-3.850448	 13.418160	-7.303246	-7.234746	 11.824910	 2.692173	 4.963066	-4.014628	-0.346955	 2.858088	-10.470690	 0.239985	 5.824813	 14.497760	-41.751960	 100.417800	 11.091290	-88.272930	 31.606480	 74.289070	-7.152441	-42.371930	-3.568496	 28.714350	-21.883730	-17.198300	-85.969920	 9.358233	-28.427250	 9.063983	 13.998000	 17.635680	-5.248814	-8.239867	-2.131385	 0.447455
-0.044367	 1.101128	 0.024697	 0.132988	-14.720930	-161.730300	 142.825200	 38.906410	 63.364970	 24.867310	-77.633490	 25.242610	 43.376620	 64.592150	-78.346570	 3.651818	 47.024680	-4.222546	-170.515900	 46.690140	-10.982870	-39.553460	-82.292480	-39.208730	-67.095470	 62.143870	 88.139960	-2.156574	 39.323640	 5.355712	-0.365224	 9.520673	-2.097306	-5.698542	 7.410020	 1.454589	-2.103390	 8.884346	 11.160390	-104.496300	 1.694797	 89.975250	 11.600040	 56.249320	 0.454120	 41.146480	-1.988791	 1.429975	-9.218512	-48.545120	 0.967214	-3.817595	 10.577770	-7.605366	-7.062619	 10.454790	 2.427370	 4.963066	-4.014628	-0.346955	 4.079203	-11.663830	-0.130090	 7.543606	 9.635235	-42.932820	 97.096640	 13.268770	-85.325470	-15.097210	 71.342430	 42.292530	-41.089960	-3.480326	 27.624810	-24.233050	-20.301610	-79.685330	 6.348889	-27.371510	 6.493534	 14.069730	 17.982750	-5.339067	-8.239867	-2.131385	 0.447455
-0.018198	 0.985268	 0.038347	 2.948004	-24.400420	-156.957900	 122.989500	 53.045360	 82.041350	 119.414600	-83.958140	 118.797500	 19.738920	 73.681470	-59.896150	 3.566741	 51.122510	-3.994716	-168.050600	 74.380490	-31.885770	-156.496900	-77.805440	-156.231500	-49.147580	 69.829990	 76.600720	-1.542959	 31.984370	 4.242166	 1.039974	 13.782570	-1.861458	-0.239732	 18.550540	 1.367935	-7.357852	 9.555044	 9.924337	-100.133000	 4.205258	 91.055480	 35.982210	 54.144460	-22.377160	 41.059520	-1.985329	 1.248207	 9.750170	-50.569060	 11.592410	-4.046829	 9.012890	-7.726903	-6.833976	 8.551933	 2.065444	 4.963066	-4.014628	-0.346955	 4.120704	-15.851950	-0.178410	 9.664750	 1.253220	-43.915820	 90.507480	 17.169450	-81.612360	-39.514480	 48.527950	 75.104160	-33.620400	-2.932952	 28.459790	-35.155540	-20.920480	-76.709860	 3.449508	-26.595260	 3.863319	 14.137580	 18.411930	-5.455970	-8.239867	-2.131385	 0.447455
 0.019548	 0.937853	 0.062404	 7.904974	-40.541580	-148.272000	 84.230640	 58.926280	 119.314600	 120.206600	-83.910440	 119.771000	-8.511840	 72.353970	-32.971700	 3.297178	 50.530720	-3.849810	 43.348660	 86.261360	 87.099400	-40.664440	-82.465900	-39.462050	-24.076170	 76.116290	 63.514590	-1.620089	 32.510370	 3.746796	 3.466026	 17.226020	-2.018955	 7.668851	 22.819110	-0.227536	-14.361150	 13.662110	 6.699549	-100.167200	 9.404556	 92.954120	 44.974900	 46.507940	-32.805770	 41.980490	-2.021703	 0.974422	 21.188630	-52.925840	 14.096320	-4.899858	 9.179362	-7.579306	-6.691820	 7.211239	 1.816243	 4.963066	-4.014628	-0.346955	 5.200740	-19.036120	-0.101511	 8.099842	-9.734364	-46.139210	 81.586010	 18.727420	-76.633430	-35.496120	 23.562800	 80.875140	-30.005910	-2.649644	 33.286770	-44.679740	-22.224030	-79.634710	 4.767296	-22.987270	 2.530704	 14.185570	 18.879750	-5.591621	-8.239867	-2.131385	 0.447455
 0.107969	 0.904096	 0.020732	 21.252710	-55.359860	-129.784300	 62.942240	 53.016560	 147.952800	 67.752440	-84.311320	 66.835590	-24.410680	 73.243040	-25.930420	 3.309461	 50.692780	-3.849043	 24.215990	 77.467250	 85.692650	-27.695880	-79.494900	-26.695460	-90.679300	 82.139430	 142.186400	-1.738702	 34.770090	 2.939611	 4.957711	 19.080270	-3.239854	 8.425606	 25.567670	-2.212571	-12.727550	 17.985470	 4.072633	-105.820700	 14.841610	 95.446240	 38.952220	 35.690270	-29.586570	 35.966840	-1.775287	 1.309655	 15.601260	-48.539420	 16.255660	-6.741328	 9.417945	-7.206188	-6.585566	 6.077156	 1.607410	 4.963066	-4.014628	-0.346955	 7.327648	-12.698850	 0.494810	 7.244637	-17.015690	-46.862270	 72.432850	 15.861190	-71.613210	-28.289420	 29.718570	 88.343490	-82.643730	-5.243495	 21.739740	-21.027090	-49.432510	-91.637090	 19.574660	-32.024550	 9.757533	 14.242340	 19.536040	-5.800529	-8.239867	-2.131385	 0.447455
 0.242367	 0.933300	-0.051459	 36.564520	-49.458740	-114.984700	 66.409360	 62.047300	 159.519800	 21.168310	-75.677100	 19.822790	-24.786180	 69.299760	-30.735070	 3.313545	 51.054370	-4.072644	-3.108562	 73.436630	 131.613900	-44.089050	-82.938870	-43.041630	-60.232910	 82.360690	 105.418100	-1.733521	 34.605370	 2.943985	 4.442748	 18.890040	-3.111099	 0.120489	 25.971520	 0.564710	-5.490380	 20.863990	 6.217858	-108.639900	 14.674680	 95.535860	 29.960170	 35.855630	-24.256780	 38.290430	-1.873006	 1.088842	 5.593683	-44.338620	 21.129640	-7.606720	 3.583496	-7.857131	-6.506907	 5.112568	 1.432157	 4.963066	-4.014628	-0.346955	 8.578560	-7.474359	 1.180366	 9.106583	-12.912380	-45.769580	 70.560000	 13.437150	-71.608060	-29.115640	 28.538210	 84.554400	-76.342380	-5.138098	 16.309240	 27.613060	-55.663200	-37.358130	 10.553700	-25.743820	 5.695836	 14.769920	 22.380450	-6.759376	-8.239867	-2.131385	 0.447455
 0.425334	 1.033276	-0.119144	 38.978540	-38.968600	-109.452900	 45.416000	 77.882500	 162.469200	 8.242634	-57.254500	 7.897565	-14.555400	 45.770800	-24.454210	 2.964315	 50.357760	-4.399588	-8.474193	 77.917710	 155.374300	-17.006750	-73.581940	-16.578030	-31.713970	 70.245660	 65.804370	-1.662220	 33.544720	 2.863877	 3.335170	 17.234480	-1.261414	-9.627914	 20.552140	 5.400250	-0.218047	 20.131930	 10.447660	-110.801600	 12.778560	 94.846890	 23.115340	 41.772870	-14.266860	 36.345910	-1.791543	 0.978893	 3.944927	-35.938900	 24.140870	-6.516462	 1.342139	-8.237827	-6.570511	 5.329641	 1.476870	 4.963066	-4.014628	-0.346955	 6.709471	-5.659562	 2.097563	 8.928681	-4.305851	-44.740760	 76.483490	 12.798060	-79.117740	-32.218360	 20.149730	 70.108680	-42.445280	-3.573570	 14.377420	 31.282130	-17.188140	 9.977083	 2.307340	 1.180983	 0.323997	 15.159590	 24.514530	-7.485247	-8.239867	-2.131385	 0.447455
 0.532998	 1.062604	-0.162917	 26.821710	-25.321170	-100.757000	 145.719600	 78.926300	 17.417820	 57.209690	-83.741170	 62.568250	 32.790490	 34.041370	-40.682300	 1.434745	 48.591280	-7.159898	 116.506100	 82.283780	 41.272870	-17.444300	-73.960570	-17.752700	-39.915700	 66.507270	 68.172060	-1.642522	 33.256280	 2.844596	 3.006183	 14.693700	-0.787694	-8.632787	 11.631940	 4.919477	 4.560964	 17.278830	 12.186490	-107.258800	 6.147851	 91.935590	-0.758775	 58.003380	 11.056290	 37.573770	-1.824968	 0.955994	-9.757311	-12.623500	 22.933620	-4.254673	 3.600071	-8.121177	-6.788620	 6.792637	 1.758376	 4.963066	-4.014628	-0.346955	 8.319329	-2.653555	 3.155642	 5.038196	 3.553449	-42.202840	 85.174060	 9.723089	-89.452950	-43.893220	 42.705150	 59.165990	-74.357880	-5.092139	 7.937171	 18.813680	 5.852414	 3.678901	-3.644897	 15.518490	-1.626678	 14.291030	 21.431830	-6.341416	-8.239867	-2.131385	 0.447455
 0.627794	 1.152629	-0.185598	 15.570140	-11.640840	-77.343320	 173.387900	 21.468290	-17.419080	 11.935430	-65.971620	 19.445200	 44.045330	 36.128970	-56.123620	 0.569900	 40.906080	-4.449394	 138.459000	 51.571300	 33.997450	-9.045218	-61.268670	-9.941246	-41.927270	 58.262680	 64.982380	-1.647713	 33.339440	 2.849553	 3.795420	 10.194750	 0.858899	-11.611600	-0.768843	 3.298572	 13.158510	 15.710820	 8.697687	-101.619700	 2.072389	 91.103650	-21.752420	 66.260090	 31.474960	 32.963570	-1.661885	 1.237437	-25.901140	 10.868810	 31.238520	-2.297033	 5.102136	-8.180949	-6.996666	 8.073327	 2.011049	 4.963066	-4.014628	-0.346955	 14.137620	 4.076743	 1.133209	-1.738911	 5.852752	-42.736830	 89.430460	 3.587546	-92.159300	-63.523170	 34.436980	 80.231040	-71.534270	-5.016054	 5.846802	 20.359880	 17.501820	-15.608340	-2.914048	 16.751460	-2.420114	 14.277830	 22.046660	-6.503992	-8.239867	-2.131385	 0.447455
 0.765742	 1.170983	-0.157105	 11.415510	-4.784520	-50.616170	 171.180500	 14.833900	 1.605726	 5.999314	-48.582810	 10.433790	 66.288120	 49.849460	-91.967530	 1.717152	 28.653980	-7.457088	 131.483100	 31.564800	 54.971710	-6.340945	-52.033650	-6.547546	-32.205750	 51.402860	 52.284030	-1.725079	 33.077330	 3.030227	 1.316297	 7.242242	 2.928134	 0.037222	 4.497063	 3.082756	 1.727764	 5.472775	 0.935539	-101.588900	-2.873411	 95.168240	-0.854747	 60.241270	 6.032766	 40.804070	-2.000912	 1.693856	-19.522850	 19.111350	 33.107870	-3.637227	 14.660100	-7.282855	-7.084951	 8.356600	 2.065864	 4.963066	-4.014628	-0.346955	 16.694960	-5.282021	-3.679297	-1.133746	-3.034041	-46.598450	 87.622890	-4.964013	-90.908070	-46.722570	 12.695270	 91.782880	-48.723360	-3.978235	 6.053218	 15.948180	 2.304766	-10.957370	-2.909981	 16.494600	-2.864748	 14.359240	 23.044010	-6.801891	-8.239867	-2.131385	 0.447455
 0.898439	 1.220466	-0.134046	 7.046341	-3.316375	-39.879410	 167.932500	 13.708460	 10.328390	 4.691609	-41.577010	 7.340577	 68.690350	 47.209500	-85.486360	 1.398005	 23.660660	-7.474017	 159.904200	 34.586930	 19.040360	-5.915751	-50.098010	-5.518508	-43.103390	 55.566020	 61.808310	-1.945511	 31.394820	 3.783325	 0.105685	 6.168433	 3.634347	-0.516286	 2.805368	 1.659911	 0.794771	 4.261791	-5.007288	-107.233400	-14.029340	 99.952190	 18.802530	 52.068330	-13.594920	 42.929430	-2.070648	 1.849314	-16.643790	 20.606260	 25.090250	-5.977681	 15.603420	-6.373383	-7.180830	 8.685291	 2.126677	 4.963066	-4.014628	-0.346955	 13.929150	-7.887199	-9.911734	 2.224451	-1.904394	-46.866340	 88.833020	-1.467756	-91.443300	-28.211740	 0.623657	 77.864320	-28.403890	-2.520440	 5.110796	 23.249900	-9.405950	 14.046920	-2.906214	 16.245370	-3.296026	 14.388650	 23.780300	-7.012271	-8.239867	-2.131385	 0.447455
